<svg width="22" height="20" viewBox="0 0 22 20" fill="none" xmlns="http://www.w3.org/2000/svg">
<path d="M2.06711 0.281008V5H19.7852V0.281008H22V20H19.7852V17.1512H2.06711V20H0V0.281008H2.06711ZM6.00447 9.87403C6.16559 9.87275 6.32537 9.90289 6.47459 9.9627C6.62382 10.0225 6.75954 10.1108 6.87393 10.2225C6.98831 10.3342 7.0791 10.4671 7.14105 10.6135C7.20301 10.7599 7.2349 10.917 7.2349 11.0756C7.24971 11.2453 7.22915 11.4161 7.17448 11.5777C7.11981 11.7393 7.03218 11.8881 6.91696 12.0152C6.80174 12.1422 6.66136 12.2447 6.50445 12.3164C6.34754 12.3881 6.1774 12.4275 6.00447 12.4322C5.63898 12.4322 5.28846 12.2892 5.03002 12.0348C4.77158 11.7804 4.6264 11.4354 4.6264 11.0756C4.66093 10.7416 4.82184 10.4326 5.07715 10.21C5.33246 9.98736 5.66348 9.86744 6.00447 9.87403ZM9.0264 10H17.6787V13.876H4.03579V12.7132H9.11499L9.0264 10ZM6.07338 0C6.24586 0.00602279 6.41531 0.0463291 6.57155 0.118495C6.7278 0.19066 6.8676 0.293193 6.98255 0.419925C7.0975 0.546657 7.18521 0.694968 7.24042 0.855937C7.29563 1.01691 7.31719 1.1872 7.3038 1.35659C7.30381 1.5152 7.27191 1.67224 7.20996 1.81865C7.148 1.96507 7.05722 2.09796 6.94283 2.20966C6.82844 2.32136 6.69272 2.40966 6.5435 2.46947C6.39427 2.52928 6.23449 2.55942 6.07338 2.55814C5.73239 2.56473 5.40136 2.44481 5.14605 2.22221C4.89074 1.9996 4.72983 1.6906 4.6953 1.35659C4.70039 0.998359 4.84722 0.656209 5.10456 0.402878C5.3619 0.149546 5.70947 0.00501094 6.07338 0ZM9.0953 0.125969H17.7477V4.19574H4.03579V2.97481H9.11499L9.0953 0.125969ZM2.06711 7.02519V15H19.7852V7.02519H2.06711Z" fill="#434343"/>
</svg>
