<svg width="22" height="18" viewBox="0 0 22 18" fill="none" xmlns="http://www.w3.org/2000/svg">
<path fill-rule="evenodd" clip-rule="evenodd" d="M2.51875 0.0817053C1.94837 0.250974 1.33704 0.784126 1.0809 1.33566C0.781688 1.98005 0.785714 1.9263 0.785714 5.28929V8.36608L0.566942 8.63159C0.327987 8.92158 0.129692 9.33336 0.0521029 9.70062C0.020969 9.84776 0.00196439 11.4444 0.00117867 13.9679L0 18H1.96429H3.92857V17.1427V16.2853H11H18.0714V17.1427V18H20.0357H22L21.9988 13.9679C21.998 11.4461 21.979 9.84771 21.9479 9.70078C21.8735 9.34853 21.6582 8.90486 21.4235 8.61996L21.2143 8.36608V5.28929C21.2143 1.909 21.2184 1.96172 20.9083 1.32269C20.6275 0.743725 20.0907 0.286982 19.4498 0.0815447C19.21 0.00470651 18.3537 -0.00343801 10.9788 0.000955807C4.06475 0.00502812 2.73433 0.0177271 2.51875 0.0817053ZM19.2411 1.8447C19.3308 1.90364 19.4523 2.03626 19.5112 2.1394C19.617 2.32475 19.6184 2.35867 19.6323 5.01949L19.6463 7.71204H18.8589H18.0714V7.0907C18.0714 6.37708 17.9987 6.03489 17.748 5.56808C17.4379 4.99083 17.0154 4.62443 16.397 4.39654C16.1028 4.28814 15.9967 4.28278 14.1702 4.28337C12.1343 4.28401 11.9922 4.29843 11.5402 4.55021C11.4186 4.61789 11.2474 4.73293 11.1596 4.80586L11 4.93842L10.8404 4.80586C10.7526 4.73293 10.5814 4.61789 10.4598 4.55021C10.0078 4.29843 9.86572 4.28401 7.82984 4.28337C6.0033 4.28278 5.89723 4.28814 5.60298 4.39654C4.98496 4.62432 4.54649 5.00471 4.25479 5.56626C3.9986 6.05949 3.93009 6.37858 3.92931 7.08244L3.92857 7.71204H3.14286H2.35714L2.35744 5.12666C2.35759 3.59043 2.37733 2.46519 2.4061 2.35374C2.43277 2.25059 2.50446 2.09895 2.56546 2.01675C2.80196 1.69804 2.34187 1.71374 11.0737 1.72617C18.9816 1.73737 19.0801 1.73882 19.2411 1.8447ZM9.81254 6.13134C10.1017 6.32146 10.1857 6.54125 10.2068 7.1626L10.2254 7.71204H7.86269H5.5L5.5003 7.26998C5.50044 7.02688 5.52332 6.73849 5.55112 6.62918C5.61275 6.3871 5.84434 6.12357 6.05565 6.05515C6.1436 6.02664 6.96413 6.0088 7.9308 6.01432C9.55365 6.02364 9.65864 6.03018 9.81254 6.13134ZM16.0983 6.13134C16.3874 6.32146 16.4714 6.54125 16.4925 7.1626L16.5111 7.71204H14.1484H11.7857L11.786 7.26998C11.7862 7.02688 11.809 6.73849 11.8368 6.62918C11.8985 6.3871 12.1301 6.12357 12.3414 6.05515C12.4293 6.02664 13.2498 6.0088 14.2165 6.01432C15.8394 6.02364 15.9444 6.03018 16.0983 6.13134ZM20.0357 9.57036C20.1302 9.63461 20.2518 9.76722 20.3058 9.86507C20.4006 10.0367 20.4045 10.1521 20.4178 13.1641L20.4316 16.2853H20.0372H19.6429V15.428V14.5707H11H2.35714V15.428V16.2853H1.96429H1.57143L1.57172 13.2713C1.57187 11.3481 1.59048 10.1845 1.62309 10.0564C1.65123 9.94592 1.72292 9.79423 1.78244 9.71932C2.02405 9.41508 1.52983 9.42981 11.0737 9.44214L19.8638 9.4535L20.0357 9.57036Z" fill="#434343"/>
</svg>
