<svg width="23" height="20" viewBox="0 0 23 20" fill="none" xmlns="http://www.w3.org/2000/svg">
<path d="M1 1H4.97519L8.33879 13.9M8.95036 13.9H21.5639M10.4793 19C11.7459 19 12.7726 17.9927 12.7726 16.75C12.7726 15.5074 11.7459 14.5 10.4793 14.5C9.21264 14.5 8.1859 15.5074 8.1859 16.75C8.1859 17.9927 9.21264 19 10.4793 19ZM19.2705 19C20.5371 19 21.5639 17.9927 21.5639 16.75C21.5639 15.5074 20.5371 14.5 19.2705 14.5C18.0039 14.5 16.9772 15.5074 16.9772 16.75C16.9772 17.9927 18.0039 19 19.2705 19ZM19.5763 10.675H8.56813C8.10946 10.675 7.65078 10.375 7.57434 9.925L6.12187 4.9C5.96898 4.225 6.42764 3.625 7.11565 3.625H20.9523C21.6403 3.625 22.1755 4.3 21.9461 4.9L20.4937 9.925C20.4937 10.375 20.1114 10.675 19.5763 10.675Z" stroke="white" stroke-width="2" stroke-miterlimit="10" stroke-linecap="round"/>
</svg>
