<svg width="24" height="20" viewBox="0 0 26 22" fill="none" xmlns="http://www.w3.org/2000/svg">
<path d="M24.4051 21.15H24.5551V21V2.82972C24.6098 2.81602 24.663 2.79667 24.7137 2.77189C24.8067 2.72647 24.8898 2.66363 24.9581 2.58671C25.0264 2.50976 25.0785 2.42026 25.1111 2.32325C25.1429 2.22834 25.1554 2.12828 25.1478 2.02866V1.69736C25.1544 1.58625 25.137 1.47511 25.0969 1.37099C25.0561 1.26529 24.9929 1.16943 24.9117 1.08945C24.8305 1.00948 24.7331 0.947135 24.626 0.906121C24.5198 0.865466 24.4062 0.846578 24.2923 0.850509H1.7113V0.850212L1.70188 0.850804C1.4808 0.864704 1.27164 0.956106 1.11433 1.10918C0.956886 1.26239 0.862329 1.4669 0.850232 1.68434L0.85 1.68433V1.69267V2.03468H0.849632L0.850367 2.04517C0.865402 2.25968 0.962117 2.46015 1.12029 2.60863C1.2783 2.75697 1.48661 2.84321 1.70506 2.85229L1.70506 2.85242H1.7113H1.80687V21V21.15H1.95687H24.4051ZM12.3554 16.35V16.3496L12.344 16.3504C12.1874 16.3623 12.0394 16.4276 11.9269 16.5358C11.8142 16.6442 11.7444 16.7887 11.7317 16.9437L11.7312 16.9437V16.956V17.298H11.731L11.7314 17.3058C11.7395 17.4637 11.8084 17.6119 11.9229 17.722C12.0373 17.832 12.1889 17.8963 12.3482 17.9039L12.3482 17.904H12.3554H14.0066C14.1794 17.904 14.3109 17.8206 14.3933 17.6986C14.4719 17.5825 14.5038 17.4366 14.5038 17.298V16.956C14.5038 16.8241 14.4713 16.6794 14.3943 16.5629C14.314 16.4414 14.1835 16.35 14.0066 16.35H12.3554ZM11.7317 11.0392L11.7312 11.0392V11.0523V11.5001C11.7312 11.6771 11.8234 11.8085 11.9474 11.8894C12.0666 11.9672 12.2157 12.0003 12.3554 12.0003H14.0066C14.1468 12.0003 14.2798 11.9666 14.376 11.869C14.4717 11.7719 14.5038 11.6387 14.5038 11.5001V11.0523C14.5038 10.9201 14.4711 10.7781 14.3924 10.6645C14.31 10.5456 14.179 10.4625 14.0066 10.4625H12.3892H12.3554V10.4624L12.3485 10.4627C12.1928 10.4698 12.044 10.5311 11.9302 10.6366C11.8163 10.7422 11.7452 10.8852 11.7317 11.0392ZM11.7317 5.1362L11.7312 5.13616V5.1485V5.6208C11.7312 5.79192 11.83 5.91614 11.9505 5.99064C12.0681 6.06338 12.2156 6.09652 12.3554 6.09652H13.997C14.0617 6.10408 14.1274 6.09803 14.1897 6.07865C14.2557 6.05811 14.3163 6.02304 14.3667 5.97575C14.4171 5.92844 14.456 5.87013 14.4797 5.80514C14.5022 5.74344 14.5105 5.67757 14.5038 5.61228V5.1485C14.5038 5.01654 14.4713 4.87192 14.3943 4.75536C14.314 4.63393 14.1835 4.54248 14.0066 4.54248H12.3892H12.3554V4.54205L12.344 4.54291C12.1874 4.55482 12.0394 4.62007 11.9269 4.72831C11.8142 4.83667 11.7444 4.98116 11.7317 5.1362ZM23.1119 13.5701H3.18938L3.14979 9.26105H23.1119V13.5701ZM3.14841 15.0101H23.1107L23.0708 19.8158H3.14841V15.0101ZM3.2223 7.78844L3.15077 3.20257H23.1458V7.78844H3.2223Z" fill="#434343" stroke="#434343" stroke-width="0.3"/>
</svg>
