<svg width="18" height="18" viewBox="0 0 18 18" fill="none" xmlns="http://www.w3.org/2000/svg">
<path d="M11.8421 12.928L11.8416 12.9276L8.45701 9.54299L8.45658 9.54256C8.38564 9.47104 8.32952 9.38622 8.29143 9.29297C8.2534 9.19985 8.23409 9.10015 8.23462 8.99957M11.8421 12.928L8.38462 9M11.8421 12.928C11.9136 12.999 11.9984 13.0551 12.0916 13.0932C12.1846 13.1312 12.2842 13.1505 12.3846 13.15M11.8421 12.928L9.61539 8.74769M8.23462 8.99957C8.23462 8.99942 8.23462 8.99928 8.23462 8.99913L8.38462 9M8.23462 8.99957V9H8.38462M8.23462 8.99957V4.07693C8.23462 3.87393 8.31526 3.67925 8.45879 3.53572C8.60233 3.39218 8.79701 3.31154 9 3.31154C9.20299 3.31154 9.39767 3.39218 9.54121 3.53572C9.68475 3.67926 9.76538 3.87393 9.76538 4.07693V8.68548M8.38462 9V4.07693C8.38462 3.91372 8.44945 3.75719 8.56486 3.64178C8.68027 3.52638 8.83679 3.46154 9 3.46154C9.16321 3.46154 9.31974 3.52638 9.43514 3.64178C9.55055 3.75719 9.61539 3.91372 9.61539 4.07693V8.74769M9.76538 8.68548L9.72135 8.64153L9.61539 8.74769M9.76538 8.68548V8.74769H9.61539M9.76538 8.68548L12.9272 11.8412C12.9272 11.8413 12.9273 11.8413 12.9274 11.8414C12.999 11.9125 13.0559 11.9971 13.0947 12.0903C13.1336 12.1835 13.1536 12.2836 13.1536 12.3846C13.1536 12.4857 13.1336 12.5857 13.0947 12.679C13.0558 12.7722 12.9989 12.8569 12.9272 12.928C12.8557 12.999 12.7708 13.0551 12.6776 13.0932C12.5846 13.1312 12.4851 13.1505 12.3846 13.15M12.3846 13.15C12.3843 13.15 12.384 13.15 12.3837 13.15L12.3846 13L12.3855 13.15C12.3852 13.15 12.3849 13.15 12.3846 13.15ZM4.47211 15.7765C5.81237 16.672 7.38808 17.15 9 17.15C11.1615 17.15 13.2345 16.2913 14.7629 14.7629C16.2913 13.2345 17.15 11.1615 17.15 9C17.15 7.38808 16.672 5.81237 15.7765 4.47211C14.8809 3.13184 13.6081 2.08724 12.1189 1.47039C10.6297 0.853531 8.99096 0.692134 7.41002 1.0066C5.82907 1.32107 4.37688 2.09728 3.23708 3.23708C2.09728 4.37688 1.32107 5.82907 1.0066 7.41002C0.692134 8.99096 0.853531 10.6297 1.47039 12.1189C2.08724 13.6081 3.13184 14.8809 4.47211 15.7765ZM5.32255 3.49631C6.41108 2.76898 7.69084 2.38077 9 2.38077C10.7555 2.38077 12.4392 3.07815 13.6805 4.3195C14.9219 5.56085 15.6192 7.24447 15.6192 9C15.6192 10.3092 15.231 11.5889 14.5037 12.6774C13.7764 13.766 12.7426 14.6144 11.5331 15.1154C10.3236 15.6164 8.99266 15.7474 7.70865 15.492C6.42465 15.2366 5.24522 14.6062 4.3195 13.6805C3.39378 12.7548 2.76336 11.5754 2.50796 10.2913C2.25255 9.00735 2.38364 7.67644 2.88463 6.46693C3.38562 5.25743 4.23403 4.22364 5.32255 3.49631Z" fill="#06B4B6" stroke="#06B4B6" stroke-width="0.3"/>
</svg>
