<svg width="173" height="173" viewBox="0 0 173 173" fill="none" xmlns="http://www.w3.org/2000/svg">
<g filter="url(#filter0_d_0_1)">
<circle cx="86.5" cy="82.5" r="81" stroke="#1FB606" stroke-width="3" shape-rendering="crispEdges"/>
</g>
<circle cx="86.5" cy="82.5" r="74" stroke="#1FB606" stroke-width="5"/>
<path fill-rule="evenodd" clip-rule="evenodd" d="M102.768 37.848C102.307 43.3376 100.528 47.7063 95.8658 54.7986C90.6857 62.6788 89.2419 67.007 90.1129 72.0466C91.0238 77.3177 94.4665 81.9701 99.0842 84.1715C102.689 85.8901 102.967 85.8129 104.345 82.7073C107.318 76.0068 108.385 70.072 108.401 60.1618C108.407 56.2933 108.305 52.1664 108.175 50.991L107.939 48.8537L108.526 50.1481C111.545 56.8037 111.726 73.7259 108.88 83.3313C108.54 84.479 108.351 85.5085 108.461 85.6181C108.901 86.0626 113.301 84.2933 115.464 82.8021C118.217 80.9036 120.796 77.3301 121.717 74.136C122.729 70.6308 122.319 64.664 120.746 59.9846C119.136 55.1963 115.531 48.2148 112.379 43.7805C109.198 39.3044 105.025 35 103.868 35C103.078 35 102.987 35.2369 102.768 37.848ZM38.5524 64.134C37.7313 65.1327 37.8521 76.9575 38.7387 82.3471C40.3498 92.1411 43.1403 101.441 46.7657 109.098C49.77 115.443 52.794 119.974 56.4942 123.673C58.9334 126.111 60.194 127.016 63.0948 128.411C67.7222 130.636 69.364 131 74.7718 131C78.4402 131 79.7617 130.829 82.2493 130.035C85.0037 129.154 90.1334 126.486 90.097 125.953C90.0889 125.831 89.1803 125.293 88.078 124.756C82.0405 121.817 73.4131 115.028 65.3086 106.839C59.2385 100.706 55.6022 96.2254 52.7177 91.3251C51.1499 88.662 49.2816 84.5969 49.5167 84.36C49.5848 84.2909 51.0349 85.9198 52.7386 87.9791C57.1564 93.3192 65.991 102.161 70.7474 106.003C77.831 111.724 84.8976 115.891 91.4676 118.22C96.4215 119.977 96.0296 120.065 97.6043 116.85C99.6527 112.669 100.293 109.414 100.081 104.268C99.9351 100.723 99.698 99.4183 98.7221 96.7776C96.3278 90.2983 91.9363 85.3278 85.8592 82.2191C82.7698 80.6386 78.8709 79.5089 70.2892 77.7079C60.5573 75.6658 56.0484 74.2601 51.2219 71.7629C47.6968 69.9389 42.6414 66.3725 40.9551 64.5196C39.8672 63.3243 39.294 63.2326 38.5524 64.134ZM125.55 89.039C113.766 91.2345 105.104 96.1052 102.365 102.074C101.703 103.517 101.538 104.622 101.538 107.596C101.537 110.804 101.671 111.576 102.513 113.224C103.05 114.275 103.66 115.189 103.869 115.254C104.078 115.32 104.886 114.28 105.665 112.943C109.511 106.344 119.179 96.9446 124.034 95.0847C124.577 94.8767 122.957 96.6983 120.325 99.2552C113.367 106.015 110.215 110.333 108.093 116.015C107.172 118.478 107.159 118.627 107.817 119.13C110.403 121.105 117.007 121.415 120.279 119.714C122.805 118.401 125.469 115.696 126.671 113.222C127.262 112.006 128.257 108.576 128.909 105.505C130.359 98.6827 131.462 95.8515 134.131 92.1028C135.274 90.4974 136.11 89.0219 135.988 88.8236C135.669 88.3034 128.73 88.4462 125.55 89.039Z" fill="#1FB606"/>
<defs>
<filter id="filter0_d_0_1" x="0" y="0" width="173" height="173" filterUnits="userSpaceOnUse" color-interpolation-filters="sRGB">
<feFlood flood-opacity="0" result="BackgroundImageFix"/>
<feColorMatrix in="SourceAlpha" type="matrix" values="0 0 0 0 0 0 0 0 0 0 0 0 0 0 0 0 0 0 127 0" result="hardAlpha"/>
<feOffset dy="4"/>
<feGaussianBlur stdDeviation="2"/>
<feComposite in2="hardAlpha" operator="out"/>
<feColorMatrix type="matrix" values="0 0 0 0 0.120157 0 0 0 0 0.713726 0 0 0 0 0.0235294 0 0 0 0.25 0"/>
<feBlend mode="normal" in2="BackgroundImageFix" result="effect1_dropShadow_0_1"/>
<feBlend mode="normal" in="SourceGraphic" in2="effect1_dropShadow_0_1" result="shape"/>
</filter>
</defs>
</svg>
