<svg width="173" height="173" viewBox="0 0 173 173" fill="none" xmlns="http://www.w3.org/2000/svg">
<g filter="url(#filter0_d_0_1)">
<circle cx="86.5" cy="82.5" r="81" stroke="#B60670" stroke-width="3" shape-rendering="crispEdges"/>
</g>
<circle cx="86.5" cy="82.5" r="74" stroke="#B60670" stroke-width="5"/>
<path fill-rule="evenodd" clip-rule="evenodd" d="M93.3751 30.065C91.1303 30.3951 89.3486 31.3772 89.3486 32.2842C89.3486 33.9385 93.654 35.1342 96.8854 34.3771C99.7271 33.7115 100.7 32.4242 99.2084 31.3023C97.9953 30.3896 95.1992 29.7965 93.3751 30.065ZM98.1495 35.6401C95.9657 36.4035 92.4663 36.2955 90.1355 35.3926C89.6907 35.2204 89.5703 35.8659 89.5022 38.7867L89.4518 40.9409L90.5875 41.2915C93.1333 42.0774 96.2504 41.9755 99.024 41.0162L100.337 40.5618L100.208 39.1127C99.9102 35.7622 99.8248 35.0872 99.7007 35.1148C99.6286 35.1307 98.9307 35.3672 98.1495 35.6401ZM110.229 42.0978C109.243 42.3304 108.449 42.9788 108.449 43.5517C108.449 44.4036 109.6 44.8816 111.649 44.8804C113.579 44.8792 114.833 44.4508 115.067 43.7126C115.446 42.5195 112.546 41.5515 110.229 42.0978ZM98.5373 45.4409C96.6029 45.9767 92.5297 46.0087 90.522 45.5036C89.7479 45.3087 89.0816 45.1823 89.0413 45.2225C88.9438 45.3201 88.1096 57.7975 88.1096 59.159C88.1096 60.641 88.4367 61.2258 89.5922 61.8107C91.7544 62.9049 95.1812 63.2252 98.3172 62.6259C100.203 62.2656 100.842 61.9753 101.396 61.2285L101.813 60.6653L101.222 52.8248C100.712 46.0532 100.587 44.9883 100.307 45.0126C100.129 45.0279 99.3323 45.2207 98.5373 45.4409ZM114.437 46.1574C113.142 46.6096 110.672 46.7168 109.557 46.3689L108.601 46.0707L108.473 47C108.403 47.511 108.346 48.2802 108.346 48.7094C108.346 49.4258 108.408 49.51 109.108 49.7409C110.287 50.1293 113.019 50.0827 114.28 49.6527C114.874 49.4497 115.4 49.2212 115.447 49.1449C115.494 49.0684 115.471 48.3 115.397 47.4374L115.263 45.8688L114.437 46.1574ZM114.334 53.7578C112.894 54.0886 110.828 54.1216 109.292 53.838C108.636 53.7168 108.072 53.6473 108.039 53.6833C107.867 53.8741 107.365 63.8604 107.509 64.2365C107.967 65.4314 109.36 65.9113 112.372 65.9119C114.937 65.9125 115.746 65.6362 116.298 64.5716C116.588 64.0117 116.578 63.5108 116.198 59.0774C115.968 56.3944 115.779 54.0284 115.779 53.8195C115.779 53.6108 115.71 53.4526 115.624 53.4683C115.539 53.4839 114.958 53.6143 114.334 53.7578ZM103.454 59.2791C103.491 61.0734 103.455 61.2582 102.91 62.0813C101.887 63.6277 99.2551 64.4262 95.1302 64.4411C92.3092 64.4514 90.7343 64.1458 88.9484 63.2421C87.8876 62.7051 86.8707 61.7752 86.8707 61.3421C86.8707 61.206 86.7871 61.0429 86.6846 60.9796C86.5135 60.874 76.8985 64.1516 76.1525 64.57C75.8661 64.7306 75.8636 64.7688 76.1333 64.8649C76.3036 64.9255 82.8921 67.2039 90.7741 69.9277L105.105 74.8802L116.337 69.91C122.515 67.1763 127.541 64.9136 127.507 64.8816C127.459 64.8366 123.263 63.4978 118.412 61.9802C118.091 61.8798 118.05 62.0322 118.05 63.3481C118.05 65.3279 117.551 66.2425 116.074 66.9641C113.794 68.0779 109.22 67.7879 107.314 66.4089C105.952 65.4233 105.79 64.803 105.951 61.1615L106.087 58.0561L104.979 57.7072C104.369 57.5152 103.768 57.3581 103.643 57.3581C103.491 57.3581 103.429 57.9972 103.454 59.2791ZM72.6267 69.46L72.6304 73.3405L85.3774 77.2687L98.1243 81.1969L100.809 87.2657L103.493 93.3345L103.547 84.8007C103.577 80.107 103.564 76.2304 103.52 76.1858C103.447 76.1128 74.1884 66.0494 73.0876 65.7189L72.623 65.5793L72.6267 69.46ZM117.844 70.9914C111.2 73.9402 105.694 76.4228 105.608 76.5082C105.522 76.5935 105.476 83.9572 105.505 92.8721L105.558 109.081L117.741 102.728L129.924 96.3743L129.978 88.7394C130.007 84.5402 130.007 77.6226 129.978 73.3671L129.924 65.6296L117.844 70.9914ZM126.515 75.6606L126.513 78.0837L124.811 78.8587C123.875 79.285 123.04 79.6329 122.955 79.6321C122.869 79.6312 122.802 78.5399 122.806 77.2073L122.811 74.7841L124.509 74.0141C125.443 73.5907 126.276 73.2426 126.362 73.2407C126.447 73.2389 126.516 74.3277 126.515 75.6606ZM59.9755 81.3394C52.9625 84.6477 47.2248 87.4115 47.2248 87.481C47.2248 87.5507 52.3043 89.6134 58.5125 92.065L69.8003 96.5223L83.4046 89.5989C90.8871 85.791 96.9808 82.6473 96.9463 82.6126C96.7842 82.451 73.4351 75.3011 73.1039 75.3119C72.8961 75.3187 66.9885 78.0309 59.9755 81.3394ZM119.697 78.6508L119.692 81.1771L117.972 81.9505C117.026 82.3759 116.189 82.7238 116.113 82.7238C116.036 82.7238 115.999 81.5999 116.031 80.2262L116.089 77.7288L117.844 76.9313C118.809 76.4929 119.622 76.132 119.651 76.1293C119.679 76.1266 119.7 77.2613 119.697 78.6508ZM112.888 81.7566V84.295L111.03 85.1428L109.171 85.9906V83.4582V80.9259L110.978 80.0847C111.972 79.6222 112.808 79.2378 112.837 79.2308C112.865 79.2237 112.888 80.3602 112.888 81.7566ZM83.8766 91.1984C76.3811 95.04 70.0509 98.1849 69.8095 98.187C69.4624 98.1899 57.9602 93.7344 47.477 89.536L45.9741 88.9341L42.9883 92.6859C41.3459 94.7494 40.0012 96.4889 40 96.5514C39.9979 96.6508 41.7488 97.572 41.9398 97.572C41.9796 97.572 43.2493 96.1262 44.7612 94.359C46.9473 91.8037 47.5969 91.1642 47.9352 91.2347C48.3217 91.3154 66.4483 98.5728 66.5937 98.7052C66.628 98.7364 67.0234 100.977 67.4725 103.684C67.9214 106.39 68.334 108.803 68.3889 109.045C68.5386 109.704 71.5044 111.087 72.21 110.827C72.8282 110.6 101.314 94.3132 101.69 93.9726C101.897 93.7845 101.516 92.7472 99.8442 88.9514C98.6856 86.3202 97.6851 84.1777 97.6211 84.1905C97.5571 84.2031 91.3721 87.3566 83.8766 91.1984ZM45.5729 95.8397C43.703 98.0129 42.8347 98.8708 42.4215 98.9537L41.8512 99.0682L41.9053 106.602L41.9594 114.136L44.3276 115.134C45.6299 115.683 46.7683 116.132 46.8571 116.132C46.9457 116.132 47.0183 113.897 47.0183 111.166C47.0183 108.434 47.097 106.23 47.1932 106.268C47.2895 106.306 50.7261 107.636 54.83 109.224L62.2919 112.111L62.3468 117.461L62.4018 122.81L64.9792 123.905C66.3969 124.507 67.5815 125 67.6119 125C67.6424 125 67.6672 121.782 67.6672 117.85C67.6672 111.885 67.6175 110.645 67.367 110.369C67.1822 110.164 66.7481 108.069 66.2369 104.91C65.7805 102.09 65.3785 99.7545 65.3438 99.7197C65.2676 99.6436 48.3114 92.8264 48.2187 92.8346C48.1832 92.8377 46.9925 94.1899 45.5729 95.8397ZM103.23 94.4803C103.085 94.7117 102.496 95.2027 101.921 95.5716L100.875 96.2421L100.88 100.568C100.882 102.947 100.891 105.553 100.898 106.361L100.912 107.828L102.168 108.285C102.859 108.537 103.464 108.703 103.513 108.654C103.562 108.605 103.577 105.302 103.547 101.313C103.503 95.3403 103.447 94.1338 103.23 94.4803ZM97.5049 98.4602L95.6465 99.5423L95.5893 102.325L95.5323 105.108L93.6792 105.963L91.8264 106.818V104.36C91.8264 103.009 91.7451 101.903 91.6455 101.903C91.546 101.903 90.5008 102.448 89.3225 103.115L87.1804 104.327L87.0772 106.965L86.9739 109.603L85.322 110.59C84.4135 111.133 83.6003 111.581 83.5152 111.586C83.4302 111.591 83.3604 110.482 83.3604 109.121C83.3604 107.76 83.2889 106.646 83.2018 106.646C83.1144 106.646 81.8834 107.321 80.4658 108.145L77.8884 109.645L77.8269 112.115L77.7654 114.586L75.9685 115.648L74.1716 116.711L74.1136 114.241C74.0816 112.883 73.9887 111.806 73.9071 111.849C73.8253 111.891 73.4122 112.084 72.9889 112.277C72.1784 112.647 72.1059 112.633 69.887 111.703C69.5473 111.56 69.5256 111.942 69.5256 118.091C69.5256 124.224 69.5481 124.623 69.8853 124.494C70.3904 124.3 98.7033 108.962 99.1268 108.652C99.439 108.424 99.4682 107.849 99.4184 102.889L99.3633 97.378L97.5049 98.4602Z" fill="#B60670"/>
<defs>
<filter id="filter0_d_0_1" x="0" y="0" width="173" height="173" filterUnits="userSpaceOnUse" color-interpolation-filters="sRGB">
<feFlood flood-opacity="0" result="BackgroundImageFix"/>
<feColorMatrix in="SourceAlpha" type="matrix" values="0 0 0 0 0 0 0 0 0 0 0 0 0 0 0 0 0 0 127 0" result="hardAlpha"/>
<feOffset dy="4"/>
<feGaussianBlur stdDeviation="2"/>
<feComposite in2="hardAlpha" operator="out"/>
<feColorMatrix type="matrix" values="0 0 0 0 0.713726 0 0 0 0 0.0235294 0 0 0 0 0.437647 0 0 0 0.25 0"/>
<feBlend mode="normal" in2="BackgroundImageFix" result="effect1_dropShadow_0_1"/>
<feBlend mode="normal" in="SourceGraphic" in2="effect1_dropShadow_0_1" result="shape"/>
</filter>
</defs>
</svg>
