<svg width="173" height="173" viewBox="0 0 173 173" fill="none" xmlns="http://www.w3.org/2000/svg">
<g filter="url(#filter0_d_0_1)">
<circle cx="86.5" cy="82.5" r="81" stroke="#FFA800" stroke-width="3" shape-rendering="crispEdges"/>
</g>
<circle cx="86.5" cy="82.5" r="73" stroke="#FFA800" stroke-width="7"/>
<path d="M121.639 80.1533C121.928 81.198 122.072 82.2895 122.072 83.4294C122.072 85.8663 121.461 88.1454 120.241 90.2656C120.337 90.93 120.386 91.6106 120.386 92.3068C120.386 95.5033 119.421 98.3199 117.495 100.757V100.994C117.527 105.33 116.154 108.749 113.375 111.249C110.597 113.749 106.96 115 102.464 115H97.0677C93.6954 115 90.4834 114.652 87.4322 113.956C84.3804 113.259 80.8 112.215 76.6891 110.823C72.9633 109.556 70.7475 108.923 70.0408 108.923H56.1667C54.4644 108.923 53.0109 108.33 51.8064 107.143C50.6022 105.956 50 104.524 50 102.847V72.4625C50 70.7849 50.6017 69.3533 51.8064 68.1662C53.0115 66.9791 54.4644 66.3862 56.1667 66.3862H69.367C70.5228 65.6259 72.7232 63.1729 75.9671 59.0273C77.8622 56.5894 79.5808 54.5807 81.1223 52.997C81.7318 52.3324 82.2299 51.3194 82.6153 49.9588C83.0007 48.5976 83.2817 47.2604 83.4587 45.9471C83.6354 44.6338 84.0451 43.2007 84.6873 41.6508C85.3295 40.0996 86.1965 38.8009 87.2885 37.7561C88.541 36.585 89.9858 36 91.6246 36C94.3225 36 96.7478 36.5133 98.8994 37.5421C101.052 38.5704 102.69 40.1769 103.814 42.3612C104.939 44.5134 105.501 47.4571 105.501 51.1913C105.501 54.1349 104.73 57.1732 103.189 60.3068H111.667C115.008 60.3068 117.898 61.5091 120.339 63.9152C122.781 66.32 124 69.1526 124 72.4128C123.999 75.2308 123.213 77.8103 121.639 80.1533ZM61.4181 97.6701C60.8079 97.069 60.0854 96.7682 59.2503 96.7682C58.415 96.7682 57.6923 97.0683 57.0819 97.6701C56.4719 98.2722 56.1667 98.9834 56.1667 99.807C56.1667 100.63 56.4719 101.342 57.0819 101.943C57.693 102.545 58.415 102.845 59.2503 102.845C60.0854 102.845 60.8079 102.545 61.4181 101.943C62.0284 101.342 62.3337 100.63 62.3337 99.807C62.3337 98.9841 62.0286 98.2722 61.4181 97.6701ZM115.954 68.2116C114.702 66.9928 113.274 66.3838 111.666 66.3838H94.7084C94.7084 64.5481 95.4785 62.0244 97.0198 58.8121C98.5618 55.5993 99.3333 53.059 99.3333 51.1915C99.3333 48.0908 98.8193 45.7958 97.792 44.3082C96.764 42.8201 94.7084 42.0763 91.6251 42.0763C90.7897 42.8991 90.1787 44.2455 89.7936 46.113C89.4096 47.9796 88.9187 49.9655 88.3245 52.071C87.7307 54.1753 86.7755 55.9086 85.4586 57.27C84.7526 57.9972 83.5154 59.438 81.7493 61.59C81.6209 61.7482 81.2512 62.2229 80.6412 63.0138C80.0314 63.8048 79.5253 64.4534 79.1239 64.9598C78.7223 65.4663 78.1681 66.1389 77.4616 66.9778C76.7547 67.8165 76.1125 68.5129 75.5342 69.0672C74.9559 69.6204 74.338 70.1826 73.6794 70.7528C73.0211 71.3225 72.3784 71.7498 71.7522 72.0343C71.126 72.3188 70.556 72.461 70.042 72.461H68.5004V102.846H70.042C70.4595 102.846 70.965 102.893 71.5595 102.988C72.1531 103.083 72.683 103.186 73.1489 103.297C73.6146 103.408 74.225 103.582 74.9796 103.819C75.7349 104.056 76.2964 104.238 76.666 104.365C77.0355 104.492 77.6055 104.689 78.3767 104.959C79.1478 105.227 79.6136 105.393 79.7739 105.457C86.5504 107.767 92.0428 108.922 96.2512 108.922H102.417C105.212 108.922 107.396 108.274 108.969 106.976C110.543 105.678 111.33 103.684 111.33 100.994C111.33 100.171 111.249 99.2847 111.09 98.3356C112.053 97.8291 112.816 96.9983 113.378 95.8435C113.94 94.6886 114.221 93.5248 114.221 92.354C114.221 91.1835 113.932 90.0909 113.353 89.0781C115.056 87.4955 115.906 85.6129 115.906 83.4287C115.906 82.6374 115.746 81.7594 115.425 80.7938C115.105 79.828 114.702 79.0766 114.221 78.5387C115.248 78.5067 116.108 77.763 116.798 76.3068C117.489 74.8512 117.834 73.5685 117.834 72.4612C117.835 70.8476 117.207 69.4311 115.954 68.2116Z" fill="#FFA800"/>
<defs>
<filter id="filter0_d_0_1" x="0" y="0" width="173" height="173" filterUnits="userSpaceOnUse" color-interpolation-filters="sRGB">
<feFlood flood-opacity="0" result="BackgroundImageFix"/>
<feColorMatrix in="SourceAlpha" type="matrix" values="0 0 0 0 0 0 0 0 0 0 0 0 0 0 0 0 0 0 127 0" result="hardAlpha"/>
<feOffset dy="4"/>
<feGaussianBlur stdDeviation="2"/>
<feComposite in2="hardAlpha" operator="out"/>
<feColorMatrix type="matrix" values="0 0 0 0 1 0 0 0 0 0.66 0 0 0 0 0 0 0 0 0.25 0"/>
<feBlend mode="normal" in2="BackgroundImageFix" result="effect1_dropShadow_0_1"/>
<feBlend mode="normal" in="SourceGraphic" in2="effect1_dropShadow_0_1" result="shape"/>
</filter>
</defs>
</svg>
