<svg width="19" height="13" viewBox="0 0 19 13" fill="none" xmlns="http://www.w3.org/2000/svg">
<path d="M19 10.8333C19 11.2133 18.8828 11.5655 18.6952 11.8755L12.6961 5.75213L18.6301 1.01579C18.8609 1.34998 19 1.74255 19 2.16676V10.8333ZM9.50002 6.86395L17.757 0.272998C17.4182 0.103776 17.0366 0 16.6251 0H2.37499C1.96288 0 1.58121 0.103776 1.24374 0.272998L9.50002 6.86395ZM11.802 6.46521L9.89074 7.99181C9.77894 8.08065 9.63974 8.12502 9.50002 8.12502C9.36022 8.12502 9.22102 8.08065 9.10922 7.99181L7.19752 6.46513L1.12255 12.6667C1.48668 12.8751 1.91343 13 2.37495 13H16.6251C17.0865 13 17.5134 12.8751 17.8775 12.6667L11.802 6.46521ZM0.369967 1.01576C0.139168 1.34995 0 1.74251 0 2.16676V10.8333C0 11.2133 0.116613 11.5656 0.305003 11.8755L6.30338 5.7511L0.369967 1.01576Z" fill="white"/>
</svg>
