<svg width="25" height="16" viewBox="0 0 27 18" fill="none" xmlns="http://www.w3.org/2000/svg">
<path d="M17.1202 0.879586L17.1202 0.879581C17.964 0.702436 19.1083 0.82845 19.8737 1.18475C20.1497 1.31323 21.5342 2.12571 22.8625 2.92173C23.5304 3.32202 24.1895 3.72143 24.6966 4.03415C24.95 4.19044 25.1661 4.32549 25.3266 4.42834C25.4067 4.4797 25.4739 4.5236 25.5252 4.55839C25.5721 4.59012 25.6172 4.62183 25.6439 4.64592C25.7751 4.7641 25.9448 4.98967 26.0334 5.15911L26.0334 5.15913L26.1772 5.43423L26.2 5.47777V5.52689V7.5276C26.2 8.51487 26.1998 9.02325 26.1839 9.31481C26.1759 9.46167 26.1635 9.56478 26.1417 9.65164C26.1191 9.74149 26.0882 9.80601 26.0574 9.86981L26.0574 9.86983C25.8122 10.3786 25.4406 10.6336 24.4338 11.1024C20.3417 13.0079 17.2104 14.4624 15.067 15.4534C12.9314 16.4408 11.7634 16.9742 11.6126 17.0294L11.6126 17.0294C11.347 17.1265 11.0787 17.1746 10.7291 17.1929C10.1351 17.224 9.72315 17.1554 9.23205 16.9373L9.23203 16.9373C9.19186 16.9194 9.12697 16.8806 9.05408 16.8352C8.97594 16.7865 8.87428 16.721 8.75307 16.6415C8.51048 16.4824 8.18624 16.265 7.8085 16.0088C7.05282 15.4964 6.08066 14.8273 5.11422 14.156C4.14778 13.4847 3.18648 12.8108 2.45256 12.2885C2.0857 12.0275 1.77502 11.8039 1.54871 11.6373C1.43568 11.5541 1.34275 11.4844 1.27405 11.4311C1.23979 11.4045 1.21047 11.3811 1.18722 11.3617L17.1202 0.879586ZM17.1202 0.879586C17.0631 0.891573 16.8862 0.946502 16.6357 1.02711C16.3776 1.11014 16.0258 1.22567 15.6057 1.36521C14.7655 1.64431 13.6508 2.01995 12.4644 2.42477L12.5289 2.61406M17.1202 0.879586L12.5289 2.61406M12.5289 2.61406L12.4643 2.42478C10.0923 3.23419 6.66669 4.40072 4.85183 5.0171M12.5289 2.61406L1.23311 6.40394M1.23311 6.40394L1.23312 6.40393C1.29942 6.34396 1.36339 6.28946 1.47507 6.2279C1.58067 6.16969 1.72593 6.10674 1.95496 6.01989C2.41377 5.8459 3.24489 5.56282 4.85183 5.0171M1.23311 6.40394C1.0609 6.55973 0.92053 6.74184 0.868165 6.92141L0.868138 6.9215C0.85055 6.98193 0.841104 7.08826 0.83396 7.19883C0.826155 7.31961 0.819782 7.47494 0.814746 7.6521C0.804664 8.00679 0.799784 8.45487 0.800007 8.90141C0.800231 9.34794 0.805559 9.79457 0.815997 10.1464C0.821209 10.3221 0.82774 10.4757 0.835676 10.5944C0.839634 10.6536 0.844057 10.7059 0.849072 10.7487C0.853529 10.7868 0.859952 10.8321 0.87153 10.8684L0.87155 10.8685C0.914474 11.003 1.02494 11.1898 1.12356 11.3022M1.23311 6.40394L1.12356 11.3022M4.85183 5.0171L4.91614 5.20648L4.85182 5.0171C4.85182 5.0171 4.85182 5.0171 4.85183 5.0171ZM1.27389 11.1703C1.49768 11.4253 8.91545 16.5777 9.31324 16.7545M1.27389 11.1703C1.19083 11.0757 1.09552 10.9124 1.06208 10.8077C0.98046 10.5516 0.978809 7.2569 1.06017 6.9774L9.31324 16.7545M1.27389 11.1703L1.12356 11.3022M1.27389 11.1703L1.12358 11.3022L1.12356 11.3022M9.31324 16.7545C9.772 16.9583 10.152 17.0229 10.7186 16.9931M9.31324 16.7545L10.7186 16.9931M18.7095 2.36327L18.7095 2.36326C18.5472 2.32209 18.2793 2.30154 17.9954 2.30666C17.7122 2.31177 17.4395 2.34196 17.2685 2.38985L17.2684 2.38986C17.0408 2.45356 13.325 3.7139 9.64623 4.96886C7.80992 5.5953 5.98682 6.21903 4.61978 6.68897C3.93623 6.92395 3.36689 7.12042 2.96699 7.25953C2.85413 7.29879 2.75488 7.33345 2.67044 7.36308C2.67269 7.36474 2.67495 7.3664 2.67722 7.36807C2.86919 7.50955 3.14728 7.71003 3.48445 7.95059C4.15853 8.43153 5.06597 9.07069 5.98649 9.71408C6.90699 10.3575 7.84006 11.0047 8.56535 11.5019C8.92808 11.7505 9.23835 11.9613 9.46894 12.1151C9.58431 12.1921 9.67904 12.2544 9.7501 12.2998C9.78568 12.3226 9.81457 12.3407 9.83675 12.3541C9.84783 12.3608 9.85666 12.366 9.86344 12.3698C9.86787 12.3723 9.8707 12.3738 9.87223 12.3746C9.8732 12.3751 9.87363 12.3754 9.87361 12.3753L9.87363 12.3754C9.98822 12.4306 10.1963 12.4762 10.4254 12.494C10.655 12.5118 10.8653 12.4986 10.9833 12.462M18.7095 2.36327L19.151 2.50226L19.1511 2.50232L19.1516 2.5025L19.1533 2.50326L19.1596 2.50608C19.1649 2.50854 19.1717 2.51183 19.1802 2.51608C19.1972 2.52458 19.2191 2.53595 19.2459 2.55028C19.2994 2.5789 19.3695 2.61771 19.4543 2.66558C19.6238 2.76123 19.8488 2.89131 20.1107 3.04463C20.6344 3.35118 21.3032 3.74926 21.9656 4.14765C22.628 4.54604 23.2832 4.94437 23.7797 5.2514C24.0281 5.405 24.236 5.53528 24.3849 5.63113C24.4596 5.67917 24.5182 5.71778 24.5593 5.746C24.58 5.76021 24.5948 5.77075 24.6043 5.77794C24.6043 5.77796 24.6043 5.77797 24.6044 5.77799C24.6604 5.85324 24.6747 5.97016 24.6014 6.10345C24.6005 6.10485 24.5935 6.11482 24.5694 6.1341C24.5403 6.15741 24.4936 6.18842 24.4185 6.23074C24.2678 6.31556 24.0275 6.43208 23.6411 6.61045C23.1057 6.85758 20.0791 8.26318 16.9155 9.73393C15.3338 10.4693 13.8729 11.1448 12.7935 11.6409C12.2538 11.8889 11.8096 12.092 11.4935 12.2351C11.3354 12.3068 11.2097 12.3632 11.1203 12.4027C11.0299 12.4427 10.9894 12.4595 10.984 12.4617C10.9835 12.4619 10.9833 12.462 10.9833 12.462M18.7095 2.36327C18.8496 2.39879 19.0508 2.46245 19.1509 2.50225L18.7095 2.36327ZM10.9833 12.462C10.9834 12.462 10.9834 12.462 10.9834 12.462L11.0426 12.653L10.9833 12.462ZM11.5751 13.844C11.6281 13.8251 11.8626 13.7202 12.2222 13.5567C12.5887 13.3901 13.0982 13.1564 13.7136 12.8729C14.9444 12.3059 16.5992 11.5391 18.381 10.7095C20.1626 9.87991 21.7867 9.12529 22.968 8.57778C23.5587 8.30402 24.0387 8.08208 24.3722 7.92846C24.4785 7.87951 24.5698 7.83754 24.6451 7.80306C24.6514 7.95459 24.6552 8.15724 24.6552 8.3804C24.6552 8.72665 24.6508 8.94655 24.6391 9.09311C24.6272 9.24277 24.609 9.29075 24.5982 9.31035C24.5956 9.31514 24.5734 9.35248 24.3859 9.45507C24.2074 9.5527 23.9147 9.69206 23.4254 9.91681C22.7743 10.2158 19.7617 11.6134 16.7309 13.0224C15.2155 13.7269 13.8148 14.3752 12.7789 14.8521C12.2608 15.0905 11.8342 15.2861 11.5301 15.4243C11.378 15.4935 11.2569 15.5482 11.1705 15.5867C11.1272 15.6059 11.0931 15.6209 11.0684 15.6316C11.0497 15.6396 11.0397 15.6438 11.0356 15.6454C11.0335 15.6463 11.033 15.6465 11.0337 15.6463C10.9262 15.6827 10.7488 15.7044 10.5495 15.7026C10.3524 15.7007 10.157 15.6759 10.0174 15.6336C10.0172 15.6335 10.0155 15.633 10.0121 15.6316C10.0082 15.6301 10.0029 15.6278 9.99593 15.6246C9.98185 15.6181 9.96332 15.6088 9.93963 15.596C9.89215 15.5704 9.82893 15.5335 9.74715 15.4831C9.58378 15.3826 9.35349 15.2327 9.03996 15.0226C8.41331 14.6025 7.46109 13.946 6.06073 12.9708L2.39774 10.4198L2.38484 9.58778L2.37641 9.04379L5.48133 11.2085C6.54712 11.9515 7.43458 12.5619 8.0808 12.9972C8.40381 13.2148 8.66734 13.3893 8.86309 13.5148C9.05058 13.6351 9.19331 13.7221 9.26263 13.7514L9.26265 13.7514C9.44842 13.8297 9.73418 13.9207 9.90732 13.9556L9.90738 13.9556C10.1384 14.0021 10.4535 14.0092 10.753 13.9893C11.0519 13.9694 11.36 13.921 11.5751 13.844ZM11.5751 13.844L11.5078 13.6557L11.5752 13.844C11.5752 13.844 11.5751 13.844 11.5751 13.844ZM10.7186 16.9931C11.054 16.9756 11.3017 16.9301 11.5439 16.8415M10.7186 16.9931L11.5439 16.8415M11.5439 16.8415C11.825 16.7388 16.1653 14.7321 24.3494 10.9211M11.5439 16.8415L24.3494 10.9211M24.3494 10.9211C25.3566 10.4521 25.6658 10.2218 25.8773 9.783L24.3494 10.9211ZM24.6125 5.78437C24.6125 5.78441 24.6121 5.78409 24.6114 5.78345L24.6125 5.78437ZM24.5963 5.76775L24.5963 5.76779L24.5963 5.76775Z" fill="#434343" stroke="#434343" stroke-width="0.4"/>
</svg>
