<svg width="24" height="18" viewBox="0 0 24 18" fill="none" xmlns="http://www.w3.org/2000/svg">
<path d="M1.61887 0.945955L1.6189 0.945939C1.90421 0.807727 2.29606 0.775528 2.79578 0.82099C3.30064 0.866919 3.94341 0.995146 4.74972 1.2047C5.48697 1.3963 6.38619 1.59957 6.7462 1.65697L1.61887 0.945955ZM1.61887 0.945955C1.23971 1.12972 0.985348 1.37252 0.897446 1.77037C0.81559 2.14086 0.886088 2.61925 1.05315 3.25618L1.05315 3.25618M1.61887 0.945955L1.05315 3.25618M1.05315 3.25618C1.16431 3.67995 1.21646 3.96571 1.21654 4.31952C1.21663 4.68002 1.16273 5.11735 1.04961 5.84474L1.04961 5.84475M1.05315 3.25618L1.04961 5.84475M1.04961 5.84475C0.95001 6.48537 0.844642 7.58346 0.814798 8.29061L0.814798 8.29062M1.04961 5.84475L0.814798 8.29062M0.814798 8.29062C0.750228 9.82204 0.889209 10.6956 1.39109 11.8366L1.67197 12.4752L1.32818 13.6726C1.0465 14.6536 0.893783 15.202 0.836165 15.5565C0.806759 15.7375 0.7999 15.8797 0.816972 16.0106C0.834164 16.1425 0.874179 16.2508 0.921176 16.3611L0.92118 16.3611M0.814798 8.29062L0.92118 16.3611M0.92118 16.3611C1.04066 16.6415 1.19234 16.8537 1.44008 16.9922C1.678 17.1252 1.98085 17.176 2.36943 17.1942L2.37876 16.9944M0.92118 16.3611L2.37876 16.9944M2.37876 16.9944L2.36944 17.1942C2.90921 17.2194 3.2629 17.1668 4.12989 16.9463C4.64198 16.816 4.91174 16.7519 5.23277 16.7189C5.5576 16.6856 5.93794 16.6838 6.6701 16.6864C9.03209 16.6951 15.3545 16.6956 17.1961 16.6873C18.0069 16.6837 18.4163 16.6839 18.7534 16.7167C19.0856 16.7489 19.3492 16.8129 19.8705 16.9458L19.9198 16.752M2.37876 16.9944L19.9198 16.752M19.9198 16.752L19.8705 16.9458C20.748 17.1694 21.0887 17.2195 21.6476 17.1937L21.6477 17.1937C21.9176 17.1812 22.1101 17.1647 22.2632 17.1245C22.4284 17.0812 22.5419 17.012 22.6597 16.9124L22.6597 16.9124C22.973 16.6472 23.155 16.3469 23.1748 15.9424C23.1937 15.5578 23.0641 15.0998 22.8216 14.5161L22.8216 14.5161L22.574 13.9203M19.9198 16.752L22.574 13.9203M22.574 13.9203L22.8581 12.1601C23.2223 9.9034 23.2896 8.42316 23.0882 6.91698C23.0745 6.81426 23.0612 6.71548 23.0485 6.62047C22.8845 5.39458 22.8043 4.79525 22.7839 4.4177C22.7647 4.06125 22.7988 3.92034 22.8772 3.59623C22.8836 3.56983 22.8903 3.54223 22.8972 3.51319L22.8972 3.51317C22.9931 3.11357 23.0875 2.53975 23.1069 2.23027C23.121 2.00377 23.1249 1.83468 23.0942 1.69357C23.0604 1.53786 22.9884 1.43027 22.8918 1.31766C22.6193 0.999883 22.2804 0.832951 21.7836 0.804465C21.3036 0.776937 20.6678 0.877967 19.7838 1.08638L18.5623 1.37435L22.574 13.9203ZM4.5073 2.48477L4.5073 2.48477C3.78607 2.29582 3.17996 2.17337 2.74779 2.12246C2.53025 2.09683 2.36598 2.09048 2.25643 2.09974C2.23799 2.1013 2.2223 2.10321 2.2091 2.10525C2.21433 2.15737 2.22422 2.22692 2.23863 2.31077C2.26976 2.49191 2.31997 2.72809 2.38177 2.97442L4.5073 2.48477ZM4.5073 2.48477C4.86163 2.57759 5.18694 2.66517 5.42551 2.73145C5.43637 2.73447 5.44704 2.73744 5.45752 2.74036C5.4504 2.74494 5.4432 2.74954 5.43592 2.75417L5.43584 2.75422M4.5073 2.48477L5.43584 2.75422M5.43584 2.75422C5.23256 2.88347 4.90875 3.16576 4.64266 3.42233C4.50782 3.55234 4.38254 3.68082 4.28972 3.78636C4.2437 3.83868 4.20261 3.88881 4.17187 3.93264C4.15666 3.95432 4.1411 3.97852 4.12855 4.00345C4.11934 4.02174 4.09725 4.06747 4.09725 4.12434C4.09725 4.19124 4.12913 4.2393 4.13778 4.25232C4.15164 4.27319 4.16745 4.29105 4.18047 4.30462C4.20715 4.33244 4.2407 4.36136 4.27568 4.38906C4.34681 4.44539 4.44121 4.51031 4.54269 4.57192L4.54273 4.57194L4.89205 4.7839L5.02037 4.86176L5.13099 4.76031L5.75224 4.19048C6.19644 3.78305 6.53645 3.55827 7.07423 3.31579C8.69455 2.58532 10.1716 2.42436 14.2156 2.58234C17.7006 2.71851 18.7742 2.6836 19.9343 2.37155C20.4638 2.22911 20.9871 2.146 21.363 2.14072M5.43584 2.75422L21.363 2.14072M21.363 2.14072L21.7694 2.13508L21.7602 2.24387C21.7466 2.40548 21.6601 2.82224 21.5652 3.16593L21.5652 3.16594C21.4509 3.5801 21.3914 3.87493 21.3986 4.31045C21.4057 4.73471 21.476 5.29204 21.6094 6.2322C21.7352 7.1189 21.8298 8.20159 21.8309 8.75128C21.8318 9.23905 21.7558 10.1174 21.6609 10.8961C21.6145 11.2766 21.5641 11.6292 21.5169 11.8962L21.3715 11.4423L21.327 11.3034L21.1811 11.3033L20.7109 11.3032H20.7109C20.6083 11.3031 20.5223 11.3044 20.4521 11.3091C20.3844 11.3136 20.3169 11.3219 20.2579 11.3421C20.1933 11.3643 20.1256 11.4055 20.0825 11.4821C20.0443 11.5499 20.0406 11.6203 20.0406 11.6645C20.0406 11.8583 20.1266 12.1269 20.2789 12.48C20.4351 12.8424 20.6751 13.3237 21.0116 13.956L21.1881 13.8621L21.0116 13.956C21.3542 14.5999 21.5842 15.094 21.7067 15.443C21.7683 15.6187 21.7988 15.7469 21.8064 15.8337C21.8091 15.8644 21.8085 15.8846 21.8073 15.8972C21.8072 15.8972 21.8071 15.8972 21.807 15.8972C21.7838 15.9041 21.7486 15.9109 21.6996 15.9155C21.6018 15.9248 21.469 15.9239 21.3082 15.9111C20.9878 15.8856 20.5788 15.8147 20.1621 15.7039L20.1621 15.7039C19.4442 15.5131 18.9459 15.4078 18.2337 15.367C17.5288 15.3266 16.6158 15.3495 15.0685 15.4089C13.0892 15.4849 11.6844 15.495 10.3236 15.4435C9.25248 15.4029 7.62968 15.3711 6.71528 15.3726C5.91805 15.374 5.48386 15.3767 5.12755 15.413C4.76563 15.45 4.4858 15.5213 3.99955 15.6511L3.99954 15.6511C3.53422 15.7753 3.10149 15.8591 2.76192 15.8969C2.59179 15.9158 2.44935 15.9228 2.34007 15.9186C2.28548 15.9165 2.24244 15.9117 2.21018 15.9055C2.19787 15.9031 2.18795 15.9006 2.18013 15.8983C2.17695 15.8905 2.17396 15.8809 2.17178 15.8704C2.16986 15.8611 2.16882 15.8523 2.16853 15.8445C2.16886 15.8421 2.16977 15.8352 2.17212 15.8223C2.17588 15.8016 2.18178 15.7733 2.1899 15.7376C2.20608 15.6663 2.22963 15.5717 2.2586 15.4607C2.31646 15.2391 2.39454 14.9575 2.4749 14.6785C2.55527 14.3994 2.63748 14.1244 2.70351 13.9158C2.72217 13.8568 2.73936 13.8038 2.75473 13.7577C2.83453 13.8063 2.93342 13.8707 3.03892 13.944C3.06116 13.9594 3.08279 13.9744 3.10382 13.9891C3.24344 14.0862 3.35675 14.165 3.44771 14.2211C3.54541 14.2813 3.65372 14.3397 3.76594 14.3459C3.9077 14.3538 4.00552 14.2804 4.07321 14.2031C4.1244 14.1447 4.17653 14.0626 4.23011 13.9782C4.23835 13.9652 4.24662 13.9522 4.25493 13.9392L4.25496 13.9392C4.34983 13.7906 4.42415 13.6655 4.45126 13.5669C4.4657 13.5143 4.47838 13.4295 4.43272 13.3458C4.38651 13.261 4.30825 13.2279 4.26203 13.2138C4.22332 13.202 4.13718 13.1522 4.00904 13.0495C3.88811 12.9526 3.74864 12.8242 3.60726 12.6801C3.32209 12.3894 3.04555 12.0519 2.90315 11.8034C2.64017 11.3443 2.47786 10.9827 2.37348 10.5756C2.26845 10.166 2.21959 9.70091 2.195 9.0311L1.99514 9.03844L2.195 9.03109C2.15956 8.06661 2.19172 7.58314 2.38179 6.27088L2.38179 6.27088C2.52422 5.28747 2.59878 4.74757 2.59932 4.31319C2.59987 3.8689 2.52306 3.53694 2.38179 2.97446L21.363 2.14072ZM2.15454 2.11858C2.15361 2.1191 2.15309 2.11933 2.15306 2.11932L2.15454 2.11858ZM2.20524 2.0292C2.20529 2.02927 2.20523 2.0305 2.20496 2.0327L2.20524 2.0292ZM1.24653 3.20546L1.24655 3.20545L1.24653 3.20546ZM1.24659 3.20544L1.2466 3.20544L1.24659 3.20544Z" fill="#434343" stroke="#434343" stroke-width="0.4"/>
</svg>
