<svg width="173" height="173" viewBox="0 0 173 173" fill="none" xmlns="http://www.w3.org/2000/svg">
<g filter="url(#filter0_d_0_1)">
<circle cx="86.5" cy="82.5" r="81" stroke="#06B4B6" stroke-width="3" shape-rendering="crispEdges"/>
</g>
<circle cx="86.5" cy="82.5" r="74" stroke="#06B4B6" stroke-width="5"/>
<path fill-rule="evenodd" clip-rule="evenodd" d="M84.9799 25.9294C83.3853 30.1254 82.1109 32.9828 79.483 38.2562C76.7739 43.6921 75.369 46.1747 72.9401 49.8177C70.3033 53.7729 67.947 56.714 64.9224 59.8259C62.8848 61.9224 62.7643 62.0744 62.974 62.2847C63.1742 62.4856 63.6268 62.5085 67.3308 62.5054C71.3669 62.502 71.4998 62.4933 72.9718 62.14C73.801 61.9409 74.5593 61.778 74.6569 61.778C74.9751 61.778 73.6998 64.8858 71.9304 68.4225C70.7777 70.7265 70.8294 70.6324 69.7495 72.3799C68.2402 74.8222 66.8191 76.6092 64.6465 78.7975C61.8991 81.5646 59.7623 83.1238 56.1963 84.9637L54.9652 85.5989L55.4456 85.9266C56.3334 86.532 57.5173 87.0486 58.8011 87.3907C59.9339 87.6925 60.4005 87.737 62.9892 87.79C65.8023 87.8475 67.2026 87.7597 69.1796 87.4013C69.7727 87.2938 70.1174 87.2837 70.2049 87.3715C70.451 87.6184 69.2631 89.8065 67.2533 92.8081C64.9853 96.1954 62.3124 99.3623 58.4999 103.179C54.3968 107.287 51.3043 109.888 47.3679 112.542C45.5022 113.801 45.6068 113.71 45.8404 113.867C46.1962 114.107 47.9891 114.827 49.6807 115.408C53.9454 116.874 58.5432 117.988 62.923 118.617C64.3114 118.817 65.4854 118.854 70.2063 118.85C80.6216 118.841 84.1006 118.273 101.524 113.739C112.383 110.912 116.777 109.929 123.242 108.879C124.917 108.607 126.328 108.348 126.378 108.304C126.428 108.26 125.447 107.745 124.198 107.16C121.238 105.775 119.337 104.713 116.819 103.038C112.34 100.059 108.383 96.3212 105.143 92.0108C103.527 89.8596 101.467 86.6287 101.713 86.6287C101.776 86.6287 102.444 86.8746 103.199 87.1754C105.062 87.9182 106.879 88.2445 109.205 88.2538C112.066 88.2652 114.855 87.6695 116.785 86.6352C117.735 86.1265 119.125 85.0304 118.98 84.9049C118.92 84.8535 118.306 84.6132 117.614 84.3711C116.002 83.807 114.559 83.1202 112.979 82.1647C107.347 78.7603 101.326 72.3424 97.6419 65.8188C96.6065 63.9852 95.4003 61.2464 95.6282 61.2464C95.6852 61.2464 96.0622 61.3982 96.466 61.5837C98.7322 62.6247 101.829 62.8685 104.835 62.2422C106.207 61.956 107.916 61.3905 108.249 61.1119C108.306 61.0642 107.77 60.5853 107.057 60.0476C105.36 58.7669 102.368 55.7382 100.823 53.7372C99.3261 51.7986 97.2326 48.6677 95.7585 46.1632C93.0719 41.5984 89.6278 34.1829 87.4879 28.3558C87.2194 27.6249 86.7587 26.369 86.4641 25.5651C86.1694 24.7611 85.8884 24.0579 85.8394 24.0025C85.7906 23.9471 85.4038 24.8142 84.9799 25.9294ZM62.8656 43.0545C60.6694 49.4447 57.2822 56.3527 53.5869 61.9773C51.3215 65.4254 49.6065 67.6053 47.3548 69.8983C46.5219 70.7464 45.8404 71.5077 45.8404 71.5901C45.8404 71.87 46.5652 71.9442 49.2172 71.9358C51.2349 71.9295 52.0805 71.8741 52.7677 71.7032C53.5526 71.5081 54.7128 71.399 54.7128 71.5202C54.7128 71.6259 54.0271 73.2759 53.4596 74.5355C51.4769 78.9376 50.1032 81.0287 47.4335 83.7102C45.5348 85.6172 44.0049 86.8195 41.8357 88.1095C40.8289 88.7083 40.0518 89.2417 40.1088 89.2951C40.3041 89.478 42.1985 90.2062 43.2582 90.5056C44.7123 90.9165 48.1748 90.9431 50.1092 90.5581C50.8183 90.417 51.436 90.3392 51.4818 90.3852C51.6721 90.5762 48.7144 95.2245 47.1068 97.2608C43.8329 101.408 38.5198 106.385 34.4632 109.106C33.6609 109.644 33.0025 110.118 33 110.159C32.987 110.37 38.3682 112.202 40.603 112.748C42.1918 113.136 42.4096 113.097 43.9954 112.131C50.1105 108.408 58.1773 101.034 63.463 94.3364C64.0928 93.5382 66.2357 90.4986 66.3154 90.2902C66.3635 90.1645 65.7926 90.1034 63.9126 90.0332C60.0507 89.8889 58.3245 89.5834 56.0501 88.6418C54.7878 88.1192 50.3044 85.5484 50.4389 85.4243C50.4954 85.3722 51.5247 84.8349 52.7264 84.2302C57.0956 82.0319 59.7421 80.4286 61.4663 78.9354C64.1929 76.5742 66.5497 73.6586 68.7863 69.8793C69.6208 68.469 71.1332 65.3478 71.1332 65.0355C71.1332 64.8652 70.8346 64.8342 69.18 64.8327C66.7864 64.8307 63.4472 64.5537 60.5338 64.1153C58.2 63.7642 57.5563 63.5935 57.6981 63.3632C57.7464 63.2847 58.629 62.4989 59.6593 61.617C63.2212 58.568 65.1797 56.6002 66.7811 54.4614L67.2753 53.8014L66.6769 52.3743C65.5663 49.7256 64.8969 48.0342 63.9559 45.4988C63.4405 44.1101 62.9987 42.9503 62.974 42.9216C62.9493 42.8929 62.9006 42.9527 62.8656 43.0545ZM109.445 44.488C109.183 45.593 107.74 49.0693 105.94 52.9315L104.891 55.1816L105.591 55.9008C106.535 56.8707 108.008 58.0086 110.43 59.6397C111.54 60.3878 112.449 61.0419 112.449 61.0934C112.449 61.2606 111.364 61.9033 109.403 62.8965C106.565 64.3345 106.045 64.4664 102.253 64.7072C100.978 64.7881 99.8589 64.8786 99.7656 64.9082C99.4554 65.0068 102.693 69.6974 104.576 71.8777C107.399 75.1464 110.485 77.9507 113.244 79.7526C115.423 81.1763 117.357 82.0458 119.997 82.789C120.762 83.0042 121.73 83.2779 122.149 83.3973C122.568 83.5166 122.911 83.6631 122.911 83.7227C122.911 84.0409 120.756 86.2764 119.171 87.6039C117.059 89.3721 113.966 90.2628 109.347 90.4327C108.104 90.4785 107.031 90.5668 106.963 90.629C106.889 90.6971 106.92 90.8356 107.04 90.9777C107.15 91.1074 107.618 91.6619 108.08 92.2101C110.466 95.0407 112.573 97.0651 115.468 99.3085C118.964 102.018 122.818 104.283 126.463 105.77L127.565 106.22L128.648 105.983C131.092 105.447 132.898 105.087 135.094 104.697C136.368 104.471 137.768 104.212 138.205 104.121L139 103.956L136.815 102.854C134.107 101.489 132.126 100.299 130.398 99.0015C128.688 97.7169 124.84 93.8558 123.563 92.1437C122.393 90.5735 121.279 88.8129 121.343 88.6327C121.367 88.5624 121.789 88.6828 122.28 88.9003C123.475 89.4296 124.981 89.6054 127.479 89.5068C129.683 89.4199 130.645 89.216 131.829 88.5848C132.629 88.1586 133.372 87.5505 133.372 87.3218C133.372 87.2499 132.791 86.9608 132.081 86.6789C130.593 86.0883 128.633 84.9413 127.016 83.7143C125.379 82.4729 122.35 79.3705 121.037 77.592C119.059 74.9139 117.264 71.8316 117.019 70.6948L116.922 70.2429L117.367 70.5134C118.627 71.2796 121.925 71.508 124.087 70.979C125.155 70.7176 125.42 70.557 125.425 70.1691C125.426 70.0699 124.488 69.0233 123.341 67.8435C119.773 64.174 117.662 61.0863 114.833 55.3992C113.452 52.6223 111.334 47.665 110.662 45.6334C110.396 44.8303 110.116 44.0978 110.039 44.0055C109.779 43.6906 109.599 43.8371 109.445 44.488ZM114.237 112.763C113.775 112.862 111.257 113.474 109.337 113.954C108.318 114.209 107.18 114.556 106.81 114.725C106.148 115.027 106.127 115.056 105.579 116.359C105.272 117.089 104.756 118.141 104.431 118.697C104.107 119.253 103.842 119.823 103.842 119.964C103.842 120.323 104.288 120.577 105.645 120.99C106.713 121.315 107.073 121.354 109.542 121.412C111.176 121.45 112.631 121.418 113.184 121.332C114.288 121.159 115.779 120.453 116.399 119.81L116.839 119.353L116.417 117.908C116.184 117.113 115.95 116.283 115.895 116.064C115.432 114.207 114.835 112.653 114.598 112.691C114.545 112.699 114.383 112.732 114.237 112.763ZM88.4144 119.242C86.8849 119.554 84.8589 119.944 83.912 120.108C82.9652 120.271 81.9538 120.446 81.6643 120.497C81.1666 120.584 81.1285 120.625 80.9631 121.25C80.2764 123.845 79.0978 126.647 77.8787 128.584C77.5804 129.058 77.3052 129.638 77.2673 129.872C77.204 130.263 77.24 130.316 77.7081 130.521C78.4832 130.861 80.1797 131.36 81.7271 131.703C82.9924 131.983 83.4214 132.01 86.4943 131.998C89.4991 131.986 89.9877 131.953 90.9305 131.7C92.244 131.348 94.2694 130.36 94.8963 129.767C95.3069 129.378 95.3568 129.264 95.2878 128.872C95.0263 127.387 92.8613 119.438 92.5688 118.89C92.3774 118.531 91.5456 118.601 88.4144 119.242ZM58.1797 120.854C57.777 121.464 56.4343 124.005 56.4343 124.156C56.4343 124.312 57.4686 124.747 58.6292 125.08C61.2342 125.827 63.8672 126.022 65.9873 125.624C67.3848 125.362 69.085 124.561 69.6752 123.886C70.1 123.4 70.106 123.376 70.0207 122.455C69.9729 121.94 69.8909 121.479 69.8384 121.431C69.7858 121.383 68.4318 121.248 66.8295 121.13C65.2271 121.012 63.1117 120.8 62.1284 120.659C61.1452 120.518 59.9481 120.362 59.4681 120.313L58.5954 120.224L58.1797 120.854Z" fill="#06B4B6"/>
<defs>
<filter id="filter0_d_0_1" x="0" y="0" width="173" height="173" filterUnits="userSpaceOnUse" color-interpolation-filters="sRGB">
<feFlood flood-opacity="0" result="BackgroundImageFix"/>
<feColorMatrix in="SourceAlpha" type="matrix" values="0 0 0 0 0 0 0 0 0 0 0 0 0 0 0 0 0 0 127 0" result="hardAlpha"/>
<feOffset dy="4"/>
<feGaussianBlur stdDeviation="2"/>
<feComposite in2="hardAlpha" operator="out"/>
<feColorMatrix type="matrix" values="0 0 0 0 0.0235294 0 0 0 0 0.705882 0 0 0 0 0.713726 0 0 0 0.25 0"/>
<feBlend mode="normal" in2="BackgroundImageFix" result="effect1_dropShadow_0_1"/>
<feBlend mode="normal" in="SourceGraphic" in2="effect1_dropShadow_0_1" result="shape"/>
</filter>
</defs>
</svg>
