<svg width="19" height="19" viewBox="0 0 19 19" fill="none" xmlns="http://www.w3.org/2000/svg">
<path d="M18.4781 15.9595L14.1192 11.6003C13.4697 12.6104 12.6102 13.4694 11.6001 14.119L15.9593 18.4782C16.6552 19.1739 17.7836 19.1739 18.478 18.4782C19.174 17.7836 19.174 16.6552 18.4781 15.9595Z" fill="white"/>
<path d="M14.25 7.12499C14.25 3.19032 11.0598 0 7.12505 0C3.19034 0 0 3.19032 0 7.12499C0 11.0597 3.19034 14.2498 7.12505 14.2498C11.0598 14.2498 14.25 11.0597 14.25 7.12499ZM7.12505 12.4685C4.17831 12.4685 1.78131 10.0717 1.78131 7.12503C1.78131 4.17831 4.17831 1.78134 7.12505 1.78134C10.0717 1.78134 12.4689 4.17831 12.4689 7.12503C12.4689 10.0717 10.0717 12.4685 7.12505 12.4685Z" fill="white"/>
<path d="M2.96883 7.12499H4.15619C4.15619 5.48807 5.48812 4.15627 7.12501 4.15627V2.9688C4.83359 2.9688 2.96883 4.83354 2.96883 7.12499Z" fill="white"/>
</svg>
