<svg width="20" height="18" viewBox="0 0 20 18" fill="none" xmlns="http://www.w3.org/2000/svg">
<path d="M18.5093 1.64902V15.3396H17.6618V17.377C17.6528 17.5382 17.5832 17.6906 17.4661 17.8054C17.349 17.9202 17.1924 17.9895 17.0261 18H16.6024C16.4628 17.9914 16.3312 17.9338 16.2324 17.838C16.1335 17.7422 16.074 17.6148 16.0651 17.4796V15.3396H4.13166V17.377C4.12296 17.537 4.05442 17.6885 3.93884 17.8031C3.82326 17.9178 3.66854 17.9878 3.50359 18H3.07983C2.94104 17.9912 2.81042 17.9333 2.71277 17.8374C2.61513 17.7415 2.55725 17.6142 2.55013 17.4796V15.3396H1.70261V1.64902H0.756716C0.574223 1.65102 0.397135 1.58907 0.258077 1.47459C0.11902 1.36012 0.027364 1.20082 0 1.02606V0.732899C0 0.538522 0.0797246 0.352106 0.221636 0.214661C0.363548 0.0772157 0.556022 0 0.756716 0H19.2433C19.444 0 19.6365 0.0772157 19.7784 0.214661C19.9203 0.352106 20 0.538522 20 0.732899V1.02606C19.9827 1.20497 19.8938 1.37024 19.7525 1.48662C19.6111 1.603 19.4284 1.66128 19.2433 1.64902H18.5093ZM9.20166 2.86563H11.2145C11.3498 2.87693 11.4768 2.93364 11.5735 3.02598C11.6702 3.11831 11.7306 3.24047 11.7442 3.37134V3.89902C11.7442 4.08958 11.4188 4.30212 11.2145 4.30212H9.20166C9.09334 4.29397 8.99147 4.24908 8.91395 4.17535C8.83644 4.10162 8.78826 4.00377 8.7779 3.89902V3.37134C8.76717 3.2503 8.80536 3.12996 8.88439 3.03564C8.96343 2.94132 9.07716 2.88037 9.20166 2.86563ZM9.09572 9.30782H11.1464C11.2557 9.31488 11.3585 9.3606 11.4352 9.43627C11.512 9.51195 11.5573 9.6123 11.5626 9.71824V10.3192C11.5577 10.4267 11.5129 10.5289 11.4364 10.607C11.36 10.6851 11.257 10.7338 11.1464 10.7443H9.13356C8.92924 10.7443 8.60386 10.5318 8.60386 10.3192V9.71824C8.60386 9.5057 8.92924 9.30782 9.13356 9.30782H9.09572ZM15.3311 2.46254H4.73704V6.96254H15.3311V2.46254ZM15.3311 8.89739H4.73704V13.3974H15.3311V8.89739Z" fill="#434343"/>
</svg>
