<svg width="25" height="25" viewBox="0 0 25 25" fill="none" xmlns="http://www.w3.org/2000/svg">
<path d="M7.90423 5.96696L7.90424 5.96696C8.10467 5.89617 8.46215 5.85407 8.77702 5.85124M7.90423 5.96696L11.2645 9.39027C11.256 9.35476 11.2443 9.31353 11.2306 9.26898C11.2032 9.17949 11.1645 9.06581 11.1184 8.93707C11.026 8.67898 10.9005 8.35121 10.7671 8.0166C10.5037 7.35596 10.1976 6.63876 10.0527 6.38741L10.0527 6.38738C9.93778 6.18826 9.78368 6.04232 9.55865 5.95479C9.34748 5.87265 9.08945 5.84839 8.77702 5.85124M7.90423 5.96696C7.69817 6.03975 7.46743 6.21354 7.25766 6.41355C7.04162 6.61952 6.82357 6.87671 6.64519 7.1456L6.64518 7.14562M7.90423 5.96696L6.64518 7.14562M8.77702 5.85124L8.77927 6.10123L8.77698 5.85124C8.77699 5.85124 8.77701 5.85124 8.77702 5.85124ZM6.64518 7.14562C5.93453 8.21707 5.85075 9.70273 6.385 11.0674C6.80429 12.1385 7.98315 13.8014 9.20579 15.072C10.576 16.4961 11.8428 17.3085 13.7803 18.0091L13.8653 17.774L6.64518 7.14562ZM7.27746 10.5322L7.27747 10.5322C7.46066 11.0571 7.74067 11.5677 8.2713 12.3244C9.66269 14.3086 11.1335 15.6803 12.6676 16.4515L12.5554 16.6749L12.6676 16.4515C12.9851 16.6111 13.5851 16.8488 14.1937 17.065C14.8038 17.2816 15.3963 17.4672 15.6992 17.5287C15.9284 17.5751 16.0376 17.5928 16.1469 17.5926C16.2582 17.5925 16.3793 17.574 16.6317 17.5267C17.0939 17.44 17.5237 17.2605 17.8631 17.0301C18.2055 16.7978 18.4382 16.5263 18.5358 16.2649L18.77 16.3525L18.5358 16.2649C18.6106 16.0649 18.6641 15.8078 18.6843 15.5909C18.6944 15.4823 18.6953 15.3932 18.6894 15.332C18.6889 15.327 18.6884 15.3225 18.6879 15.3183C18.6711 15.3092 18.6511 15.2985 18.6278 15.2863C18.5554 15.2484 18.4571 15.1987 18.3404 15.1408C18.1073 15.0252 17.805 14.879 17.4998 14.7337C17.1947 14.5884 16.8876 14.4446 16.6449 14.3337C16.5235 14.2783 16.419 14.2315 16.3394 14.197C16.2995 14.1797 16.2669 14.166 16.2421 14.156C16.2196 14.147 16.2088 14.1432 16.2061 14.1422L7.27746 10.5322ZM7.27746 10.5322C6.86993 9.36459 7.00871 8.35046 7.66361 7.48955L7.66361 7.48954M7.27746 10.5322L7.66361 7.48954M11.6201 13.9687L11.4618 14.1622C10.9239 13.7223 10.3497 13.0859 9.92292 12.5077C9.70932 12.2184 9.52758 11.9369 9.40465 11.6958C9.34337 11.5757 9.29343 11.4592 9.26244 11.3527C9.23355 11.2534 9.2112 11.1303 9.24053 11.0133L11.6201 13.9687ZM11.6201 13.9687L11.4618 14.1622C11.9643 14.5733 12.591 14.9732 13.148 15.2628M11.6201 13.9687L13.148 15.2628M7.66361 7.48954C7.90233 7.17572 8.02499 7.04621 8.14642 6.97932C8.25939 6.91709 8.39761 6.89505 8.72292 6.89505C8.97843 6.89505 9.0824 6.89949 9.13733 6.91166C9.14378 6.91309 9.1478 6.91429 9.15005 6.91507C9.1527 6.91765 9.15897 6.92424 9.17071 6.93895M7.66361 7.48954L9.17071 6.93895M9.17071 6.93895C9.1716 6.94049 9.1761 6.9477 9.18486 6.9637C9.19707 6.98601 9.21306 7.01699 9.23269 7.05668C9.27182 7.13577 9.32227 7.243 9.38071 7.37138C9.49744 7.62776 9.64364 7.96305 9.79085 8.31483C9.79085 8.31483 9.79085 8.31483 9.79085 8.31484L10.2854 9.49684L10.2074 9.65761C10.2074 9.65762 10.2074 9.65762 10.2074 9.65762C10.1529 9.76999 9.93839 10.0673 9.72596 10.3086C9.61324 10.4366 9.50571 10.5718 9.42243 10.6879C9.38091 10.7458 9.34366 10.8014 9.31431 10.8506C9.28958 10.8921 9.25569 10.9528 9.24053 11.0133L9.17071 6.93895ZM13.148 15.2628C13.4266 15.4076 13.693 15.5275 13.9216 15.6076M13.148 15.2628L13.9216 15.6076M13.9216 15.6076C14.0359 15.6476 14.1449 15.6791 14.2439 15.6982M13.9216 15.6076L14.2439 15.6982M14.2439 15.6982C14.3395 15.7167 14.442 15.727 14.5369 15.7123L14.2439 15.6982ZM1.37575 10.506L1.37575 10.506C1.24303 11.3665 1.24291 12.8886 1.37494 13.7768L1.37494 13.7768C1.56798 15.0752 1.9301 16.2037 2.52456 17.3577L2.74681 17.2432L2.52456 17.3577L2.77876 17.8512L1.77213 20.8187L2.0085 20.8989L1.77213 20.8187C1.48571 21.6631 1.22882 22.4348 1.04564 22.9981C0.954111 23.2795 0.880663 23.5098 0.831065 23.6715C0.806378 23.752 0.786985 23.8174 0.77414 23.8643C0.767895 23.8871 0.762152 23.9093 0.758155 23.9279C0.756367 23.9363 0.753467 23.9505 0.751716 23.9664C0.750947 23.9734 0.749285 23.99 0.75035 24.0106C0.750875 24.0207 0.752412 24.0399 0.75857 24.0631C0.763672 24.0822 0.778762 24.1312 0.823633 24.1762L0.823946 24.1765C0.869477 24.2219 0.91921 24.2367 0.93734 24.2415C0.959994 24.2475 0.978726 24.2491 0.988508 24.2496C1.00844 24.2507 1.02456 24.2492 1.03135 24.2486C1.04683 24.247 1.06089 24.2443 1.06933 24.2427C1.08811 24.2389 1.11067 24.2334 1.13418 24.2274C1.18245 24.215 1.25006 24.1962 1.33343 24.1722C1.50086 24.1239 1.73961 24.0524 2.03143 23.9633C2.61546 23.7848 3.41588 23.5344 4.29191 23.2552L7.382 22.27L7.84661 22.4862L7.9521 22.2596L7.84661 22.4862C8.89922 22.9761 10.0333 23.3121 11.2102 23.4831C11.5995 23.5397 12.2152 23.562 12.8256 23.5557C13.4369 23.5494 14.0649 23.514 14.48 23.4496C18.6286 22.8058 22.0453 20.0448 23.5381 16.129C24.3583 13.9775 24.4757 11.4223 23.8594 9.1704L23.8594 9.17038C23.5518 8.04656 23.1681 7.16019 22.572 6.19809L22.3595 6.32976L22.572 6.19809C20.8198 3.37003 17.9683 1.44787 14.672 0.871122L14.6719 0.87112C14.279 0.802393 13.606 0.762598 12.946 0.752545C12.2859 0.74249 11.61 0.761755 11.211 0.818336L11.2461 1.06586L11.211 0.818336C6.10316 1.54277 2.15939 5.42632 1.37575 10.506ZM7.54662 21.2173L7.45783 21.1756L7.36436 21.2054L4.55486 22.1015C3.78275 22.3478 3.07875 22.5692 2.56661 22.7276C2.41809 22.7735 2.28594 22.814 2.17309 22.8482C2.20722 22.7425 2.24722 22.6198 2.29229 22.4826C2.45437 21.989 2.68101 21.3106 2.93304 20.5666L3.85011 17.8595L3.88425 17.7587L3.83528 17.6642L3.47012 16.9597L3.24816 17.0747L3.47012 16.9597C2.9058 15.8709 2.61362 14.9934 2.3784 13.674L2.13247 13.7179L2.3784 13.674C2.33017 13.4035 2.30334 12.8165 2.30328 12.1966C2.30321 11.5789 2.32965 10.9656 2.37898 10.6465C2.73149 8.36632 3.79604 6.29869 5.43058 4.71629C7.83099 2.3926 11.0292 1.37346 14.3769 1.86839L14.4135 1.62108L14.3769 1.86839C18.0755 2.41516 21.2827 5.01313 22.5812 8.51368C23.693 11.5111 23.3623 14.9119 21.703 17.5796C20.8301 18.983 19.6207 20.1832 18.2435 21.0148C16.6415 21.982 15.0522 22.4561 13.146 22.5339C11.3655 22.6066 9.8267 22.2883 8.13995 21.496L7.54662 21.2173ZM10.6696 10.7627C11.0558 10.3081 11.2791 9.90984 11.2816 9.51227L16.236 13.3724C15.9075 13.3274 15.7376 13.4241 15.4152 13.8398L15.2177 13.6866C15.2177 13.6866 15.2177 13.6866 15.2177 13.6866C14.9584 14.0209 14.7333 14.2884 14.5617 14.4702C14.4753 14.5617 14.4069 14.6267 14.3575 14.667C14.3545 14.6694 14.3517 14.6716 14.349 14.6737C14.3173 14.6635 14.2769 14.6492 14.2293 14.6311C14.1177 14.5887 13.9766 14.5294 13.8342 14.4636C12.4275 13.8134 11.3744 12.8819 10.4204 11.4321C10.3953 11.394 10.3747 11.3634 10.3576 11.3379C10.3241 11.2881 10.3039 11.258 10.2892 11.2301C10.291 11.2269 10.2932 11.2231 10.2959 11.2188C10.3095 11.1967 10.3308 11.167 10.3639 11.1252C10.4122 11.0642 10.4748 10.9909 10.5581 10.8935C10.5917 10.8541 10.6288 10.8108 10.6696 10.7628L10.479 10.6009L10.6696 10.7627ZM14.312 14.7001C14.3075 14.7026 14.3079 14.7019 14.3124 14.6999L14.312 14.7001ZM18.681 15.2813C18.6811 15.2815 18.6812 15.2818 18.6813 15.2821L18.681 15.2813ZM14.5369 15.7123C14.6487 15.6951 14.7555 15.6399 14.8501 15.5766C14.9482 15.5109 15.0525 15.4231 15.1612 15.3185C15.3788 15.109 15.6316 14.8151 15.9111 14.4488L15.7123 14.2971L15.9111 14.4488C15.9978 14.3352 16.059 14.2554 16.1072 14.1976C16.1346 14.1647 16.1537 14.1441 16.1666 14.1312L14.5369 15.7123Z" fill="#1FB606" stroke="#1FB606" stroke-width="0.5"/>
</svg>
